<?xml version="1.0" encoding="utf-8"?>
<!-- Generator: Adobe Illustrator 19.0.0, SVG Export Plug-In . SVG Version: 6.00 Build 0)  -->
<svg version="1.1" id="图层_1" xmlns="http://www.w3.org/2000/svg" xmlns:xlink="http://www.w3.org/1999/xlink" x="0px" y="0px"
	 viewBox="-285 408.9 24 25" style="enable-background:new -285 408.9 24 25;" xml:space="preserve">
<style type="text/css">
	.st0{fill:#FFFFFF;}
</style>
<title>FaceBook-2</title>
<desc>Created with Sketch.</desc>
<g id="Page-1">
	<g id="繁体中文" transform="translate(-1144.000000, -3563.000000)">
		<path id="FaceBook-2" class="st0" d="M871,3971.9c-6.6,0-12,5.4-12,12c0,6.6,5.4,12,12,12c6.6,0,12-5.4,12-12
			C883,3977.3,877.6,3971.9,871,3971.9z M874.2,3983.9h-2.1v7.5H869v-7.5h-1.6v-2.6h1.6v-1.6c0-2.1,0.9-3.3,3.3-3.3h2.1v2.6h-1.3
			c-0.9,0-1,0.4-1,1v1.3h2.3L874.2,3983.9L874.2,3983.9z"/>
	</g>
</g>
</svg>
