<?xml version="1.0" encoding="utf-8"?>
<!-- Generator: Adobe Illustrator 19.0.0, SVG Export Plug-In . SVG Version: 6.00 Build 0)  -->
<svg version="1.1" id="图层_1" xmlns="http://www.w3.org/2000/svg" xmlns:xlink="http://www.w3.org/1999/xlink" x="0px" y="0px"
	 viewBox="-285 408.9 24 24" style="enable-background:new -285 408.9 24 24;" xml:space="preserve">
<style type="text/css">
	.st0{fill:#FFFFFF;}
</style>
<title>instagram</title>
<desc>Created with Sketch.</desc>
<g id="Page-1">
	<g id="繁体中文" transform="translate(-996.000000, -3607.000000)">
		<path id="instagram" class="st0" d="M722.9,4031.7c-1.9,0-3.5-1.6-3.5-3.5s1.6-3.5,3.5-3.5c1.9,0,3.5,1.6,3.5,3.5
			S724.9,4031.7,722.9,4031.7z M726.9,4025.5c-0.7,0-1.2-0.5-1.2-1.2c0-0.7,0.5-1.2,1.2-1.2c0.7,0,1.2,0.5,1.2,1.2
			C728.1,4025,727.6,4025.5,726.9,4025.5z M722.9,4025.6c-1.4,0-2.6,1.2-2.6,2.6s1.2,2.6,2.6,2.6s2.6-1.2,2.6-2.6
			S724.4,4025.6,722.9,4025.6z M723,4015.9c-6.6,0-12,5.4-12,12s5.4,12,12,12c6.6,0,12-5.4,12-12S729.6,4015.9,723,4015.9z
			 M729.9,4030.8c0,2.2-1.8,3.9-3.9,3.9H720c-2.2,0-3.9-1.8-3.9-3.9v-5.9c0-2.2,1.8-3.9,3.9-3.9h5.9c2.2,0,3.9,1.8,3.9,3.9V4030.8z"
			/>
	</g>
</g>
</svg>
