<?xml version="1.0" encoding="utf-8"?>
<!-- Generator: Adobe Illustrator 19.0.0, SVG Export Plug-In . SVG Version: 6.00 Build 0)  -->
<svg version="1.1" id="图层_1" xmlns="http://www.w3.org/2000/svg" xmlns:xlink="http://www.w3.org/1999/xlink" x="0px" y="0px"
	 viewBox="-285 408.9 24 24" style="enable-background:new -285 408.9 24 24;" xml:space="preserve">
<style type="text/css">
	.st0{fill:#FFFFFF;}
</style>
<title>slack</title>
<desc>Created with Sketch.</desc>
<g id="Page-1">
	<g id="繁体中文" transform="translate(-1046.000000, -3607.000000)">
		<g id="slack" transform="translate(1046.000000, 3607.000000)">
			<g id="Group-3">
				<path id="Fill-1" class="st0" d="M-273,408.9c-6.6,0-12,5.4-12,12c0,6.6,5.4,12,12,12c6.6,0,12-5.4,12-12
					C-261,414.3-266.4,408.9-273,408.9z M-266.2,422.8l-1.6,0.5l0.5,1.6c0.2,0.7-0.1,1.3-0.7,1.6c-0.1,0.1-0.3,0.1-0.4,0.1
					c-0.5,0-1-0.4-1.1-0.8l-0.5-1.6l-3.1,1l0.5,1.6c0.2,0.7-0.1,1.3-0.7,1.6c-0.1,0.1-0.3,0.1-0.4,0.1c-0.5,0-1-0.4-1.1-0.8
					l-0.5-1.6l-1.6,0.5c-0.1,0.1-0.3,0.1-0.4,0.1c-0.5,0-1-0.4-1.1-0.8c-0.2-0.7,0.1-1.3,0.7-1.6l1.6-0.5l-1-3.1l-1.6,0.5
					c-0.1,0.1-0.3,0.1-0.4,0.1c-0.5,0-1-0.4-1.1-0.8c-0.2-0.7,0.1-1.3,0.7-1.6l1.6-0.5l-0.5-1.6c-0.2-0.7,0.1-1.3,0.7-1.6
					c0.7-0.2,1.3,0.1,1.6,0.7l0.5,1.6l3.1-1l-0.5-1.6c-0.2-0.7,0.1-1.3,0.7-1.6c0.7-0.2,1.3,0.1,1.6,0.7l0.7,1.6l1.6-0.5
					c0.7-0.2,1.3,0.1,1.6,0.7c0.2,0.7-0.1,1.3-0.7,1.6l-1.6,0.5l1,3.1l1.6-0.5c0.7-0.2,1.3,0.1,1.6,0.7
					C-265.2,422-265.5,422.7-266.2,422.8z"/>
			</g>
			<polygon id="Fill-4" class="st0" points="-275.1,419.9 -271.9,418.8 -270.9,421.9 -274.1,422.9 			"/>
		</g>
	</g>
</g>
</svg>
