<?xml version="1.0" encoding="utf-8"?>
<!-- Generator: Adobe Illustrator 19.0.0, SVG Export Plug-In . SVG Version: 6.00 Build 0)  -->
<svg version="1.1" id="图层_1" xmlns="http://www.w3.org/2000/svg" xmlns:xlink="http://www.w3.org/1999/xlink" x="0px" y="0px"
	 viewBox="-285 408.9 24 24" style="enable-background:new -285 408.9 24 24;" xml:space="preserve">
<style type="text/css">
	.st0{fill:#FFFFFF;}
</style>
<title>telegram</title>
<desc>Created with Sketch.</desc>
<g id="Page-1">
	<g id="繁体中文" transform="translate(-1095.000000, -3607.000000)">
		<path id="telegram" class="st0" d="M826,4033.2l2-9.3c0.1-0.4,0-0.7-0.1-0.8c-0.2-0.2-0.4-0.2-0.7-0.1l-11.5,4.5
			c-0.3,0.1-0.4,0.2-0.5,0.3s-0.1,0.2,0,0.4c0.1,0.1,0.2,0.2,0.4,0.3l2.9,0.9l6.8-4.3c0.2-0.1,0.3-0.2,0.4-0.1c0.1,0,0,0.1-0.1,0.2
			l-5.5,5l-0.2,3.1c0.2,0,0.4-0.1,0.6-0.3l1.4-1.4l3,2.2C825.5,4034.1,825.8,4033.9,826,4033.2z M834,4027.9c0,1.6-0.3,3.2-1,4.7
			c-0.6,1.5-1.5,2.8-2.6,3.8c-1.1,1.1-2.3,1.9-3.8,2.6c-1.5,0.6-3,1-4.7,1c-1.6,0-3.2-0.3-4.7-1c-1.5-0.6-2.8-1.5-3.8-2.6
			c-1.1-1.1-1.9-2.3-2.6-3.8c-0.6-1.5-1-3-1-4.7s0.3-3.2,1-4.7s1.5-2.8,2.6-3.8c1.1-1.1,2.3-1.9,3.8-2.6c1.5-0.6,3-1,4.7-1
			c1.6,0,3.2,0.3,4.7,1c1.5,0.6,2.8,1.5,3.8,2.6c1.1,1.1,1.9,2.3,2.6,3.8C833.7,4024.7,834,4026.3,834,4027.9z"/>
	</g>
</g>
</svg>
