<?xml version="1.0" encoding="utf-8"?>
<!-- Generator: Adobe Illustrator 19.0.0, SVG Export Plug-In . SVG Version: 6.00 Build 0)  -->
<svg version="1.1" id="图层_1" xmlns="http://www.w3.org/2000/svg" xmlns:xlink="http://www.w3.org/1999/xlink" x="0px" y="0px"
	 viewBox="-285 408.9 24 24" style="enable-background:new -285 408.9 24 24;" xml:space="preserve">
<style type="text/css">
	.st0{fill:#FFFFFF;}
</style>
<title>twitter</title>
<desc>Created with Sketch.</desc>
<g id="Page-1">
	<g id="繁体中文" transform="translate(-1097.000000, -3563.000000)">
		<path id="twitter" class="st0" d="M824,3971.9c-6.6,0-12,5.4-12,12c0,6.6,5.4,12,12,12c6.6,0,12-5.4,12-12
			C836,3977.3,830.6,3971.9,824,3971.9z M830.2,3981.7c-0.1,5.1-3.4,8.6-8.3,8.8c-2,0.1-3.5-0.6-4.8-1.4c1.5,0.2,3.4-0.4,4.3-1.2
			c-1.5-0.1-2.3-0.9-2.7-2.1c0.4,0.1,0.9,0.1,1.3,0c-1.3-0.4-2.3-1.3-2.3-3c0.4,0.2,0.8,0.3,1.3,0.4c-1-0.6-1.7-2.6-0.9-4
			c1.5,1.6,3.2,2.9,6.1,3.1c-0.7-3.1,3.4-4.8,5.1-2.7c0.7-0.1,1.3-0.4,1.9-0.7c-0.2,0.7-0.7,1.2-1.2,1.6c0.6-0.1,1.1-0.2,1.6-0.5
			C831.4,3980.7,830.7,3981.2,830.2,3981.7z"/>
	</g>
</g>
</svg>
