<?xml version="1.0" encoding="utf-8"?>
<!-- Generator: Adobe Illustrator 19.0.0, SVG Export Plug-In . SVG Version: 6.00 Build 0)  -->
<svg version="1.1" id="图层_1" xmlns="http://www.w3.org/2000/svg" xmlns:xlink="http://www.w3.org/1999/xlink" x="0px" y="0px"
	 viewBox="-285 408.9 24 24" style="enable-background:new -285 408.9 24 24;" xml:space="preserve">
<style type="text/css">
	.st0{fill:#FFFFFF;}
</style>
<title>Shape Copy 3</title>
<desc>Created with Sketch.</desc>
<g id="Page-1">
	<g id="繁体中文" transform="translate(-1046.000000, -3563.000000)">
		<path id="Shape-Copy-3" class="st0" d="M769.4,3986c-0.6,0.1-1,0.6-1,1.1c0,0.5,0.5,0.9,1.1,0.8c0.6-0.1,1.1-0.5,1.1-1
			C770.5,3986.3,770.1,3985.9,769.4,3986L769.4,3986z M770.9,3985.5c-0.2,0.1-0.2,0.4-0.1,0.6c0.1,0.2,0.4,0.2,0.6,0.1
			c0.2-0.2,0.3-0.4,0.2-0.6C771.4,3985.4,771.1,3985.4,770.9,3985.5L770.9,3985.5z M773,3971.9c-6.6,0-12,5.4-12,12
			c0,6.6,5.4,12,12,12c6.6,0,12-5.4,12-12C785,3977.3,779.6,3971.9,773,3971.9L773,3971.9z M779.6,3986.9c-1.3,2.8-5.7,4.2-8.9,3.9
			c-3.1-0.2-7-1.3-7.4-5c0,0-0.2-1.7,1.4-3.9c0,0,2.3-3.3,5.1-4.2c2.7-0.9,3.1,0.6,3.1,1.6c-0.1,0.8-0.4,1.3,0.6,0.9
			c0,0,2.7-1.2,3.8-0.1c0.9,0.9,0.1,2.1,0.1,2.1s-0.4,0.4,0.4,0.6C778.5,3983,780.9,3984.1,779.6,3986.9L779.6,3986.9z
			 M776.9,3979.1c-0.3,0-0.5-0.2-0.5-0.5c0-0.3,0.2-0.5,0.5-0.5c0,0,3.3-0.6,2.9,2.9c0,0,0,0,0,0.1c0,0.3-0.3,0.4-0.5,0.4
			c-0.3,0-0.5-0.2-0.5-0.5C778.8,3981,779.3,3978.6,776.9,3979.1L776.9,3979.1z M782.5,3981.6c-0.1,1.3-0.4,0.8-0.7,0.8
			c-0.4,0-0.8-0.2-0.8-0.6c0-0.4,0.2-0.7,0.2-0.7c0-0.2,0.4-1.1-0.2-2.5c-1.2-2-3.5-2-3.8-1.9c-0.3,0.1-0.7,0.2-0.7,0.2
			c-0.4,0-0.8-0.3-0.8-0.8c0-0.4,0.2-0.6,0.6-0.7c0,0,0,0,0,0c0,0,0,0,0.1,0c0.3-0.1,1.5-0.5,2.6-0.2
			C780.9,3975.6,783.7,3977.8,782.5,3981.6L782.5,3981.6L782.5,3981.6z M770.9,3982.2c-3.2,0.1-5.8,1.9-5.8,4c0,2.1,2.6,3.8,5.8,3.6
			c3.2-0.1,5.8-2.2,5.8-4.3C776.7,3983.3,774.1,3982,770.9,3982.2L770.9,3982.2z M773.1,3987.6c-1,1.3-2.9,1.9-4.8,0.9
			c-0.9-0.5-0.9-1.4-0.9-1.4s-0.4-3,2.9-3.4C773.5,3983.2,774.1,3986.3,773.1,3987.6L773.1,3987.6z"/>
	</g>
</g>
</svg>
