<?xml version="1.0" encoding="utf-8"?>
<!-- Generator: Adobe Illustrator 19.0.0, SVG Export Plug-In . SVG Version: 6.00 Build 0)  -->
<svg version="1.1" id="图层_1" xmlns="http://www.w3.org/2000/svg" xmlns:xlink="http://www.w3.org/1999/xlink" x="0px" y="0px"
	 viewBox="-285 408.9 24 24" style="enable-background:new -285 408.9 24 24;" xml:space="preserve">
<style type="text/css">
	.st0{fill:#FFFFFF;}
</style>
<title>Shape Copy 4</title>
<desc>Created with Sketch.</desc>
<g id="Page-1">
	<g id="繁体中文" transform="translate(-997.000000, -3563.000000)">
		<path id="Shape-Copy-4" class="st0" d="M726,3983.9c-0.3,0-0.7,0.3-0.7,0.7c0,0.3,0.3,0.7,0.7,0.7c0.5,0,0.9-0.3,0.9-0.7
			C726.8,3984.2,726.5,3983.9,726,3983.9L726,3983.9z M729.7,3983.9c-0.3,0-0.7,0.3-0.7,0.7c0,0.3,0.3,0.7,0.7,0.7
			c0.5,0,0.9-0.3,0.9-0.7C730.6,3984.2,730.2,3983.9,729.7,3983.9L729.7,3983.9z M718.9,3978.9c-0.5,0-1,0.3-1,0.9
			c0,0.5,0.5,0.9,1,0.9c0.5,0,0.9-0.3,0.9-0.9C719.8,3979.3,719.5,3978.9,718.9,3978.9L718.9,3978.9z M723.7,3980.6
			c0.5,0,0.9-0.3,0.9-0.9c0-0.5-0.3-0.9-0.9-0.9c-0.5,0-1,0.3-1,0.9C722.7,3980.3,723.2,3980.6,723.7,3980.6L723.7,3980.6z
			 M724,3971.9c-6.6,0-12,5.4-12,12s5.4,12,12,12c6.6,0,12-5.4,12-12S730.6,3971.9,724,3971.9L724,3971.9z M721.2,3987.7
			c-0.9,0-1.5-0.2-2.4-0.3l-2.4,1.2l0.7-2.1c-1.7-1.2-2.7-2.7-2.7-4.6c0-3.3,3.1-5.8,6.8-5.8c3.4,0,6.3,2,6.9,4.8
			c-0.2,0-0.4,0-0.7,0c-3.3,0-5.8,2.4-5.8,5.4c0,0.5,0.1,1,0.2,1.4C721.6,3987.7,721.4,3987.7,721.2,3987.7L721.2,3987.7z
			 M731.3,3990.1l0.5,1.7l-1.9-1c-0.7,0.2-1.4,0.3-2.1,0.3c-3.3,0-5.8-2.2-5.8-5c0-2.7,2.6-5,5.8-5c3.1,0,5.8,2.2,5.8,5
			C733.7,3987.7,732.6,3989,731.3,3990.1L731.3,3990.1z"/>
	</g>
</g>
</svg>
